<?xml version="1.0" encoding="UTF-8"?>
<svg xmlns="http://www.w3.org/2000/svg" xmlns:xlink="http://www.w3.org/1999/xlink" width="2100" height="2100" viewBox="0 0 2100 2100">
<path fill-rule="evenodd" fill="rgb(100%, 100%, 100%)" fill-opacity="1" d="M 2096.011719 0 L -3.996094 0 L -3.996094 2100 L 2096.011719 2100 L 2096.011719 0 "/>
<path fill="none" stroke-width="143.61" stroke-linecap="round" stroke-linejoin="round" stroke="rgb(0%, 0%, 0%)" stroke-opacity="1" stroke-miterlimit="10" d="M 19459.492188 -2053.085938 L 13240.3125 4166.132812 L 11189.6875 4166.132812 L 5286.71875 10069.101562 " transform="matrix(0.1, 0, 0, -0.1, 0, 2100)"/>
<path fill="none" stroke-width="143.61" stroke-linecap="round" stroke-linejoin="round" stroke="rgb(0%, 0%, 0%)" stroke-opacity="1" stroke-miterlimit="10" d="M 25333.203125 3820.585938 L 19113.984375 10039.804688 L 17063.398438 10039.804688 L 15482.382812 11620.78125 " transform="matrix(0.1, 0, 0, -0.1, 0, 2100)"/>
<path fill="none" stroke-width="143.61" stroke-linecap="round" stroke-linejoin="round" stroke="rgb(0%, 0%, 0%)" stroke-opacity="1" stroke-miterlimit="10" d="M 23017.8125 1505.234375 L 14759.492188 9763.59375 L 12708.90625 9763.59375 L 8845.078125 13627.382812 " transform="matrix(0.1, 0, 0, -0.1, 0, 2100)"/>
<path fill="none" stroke-width="143.61" stroke-linecap="round" stroke-linejoin="round" stroke="rgb(0%, 0%, 0%)" stroke-opacity="1" stroke-miterlimit="10" d="M 13167.1875 3427.460938 L 11116.601562 3427.460938 L 3723.789062 10820.3125 " transform="matrix(0.1, 0, 0, -0.1, 0, 2100)"/>
<path fill="none" stroke-width="143.61" stroke-linecap="round" stroke-linejoin="round" stroke="rgb(0%, 0%, 0%)" stroke-opacity="1" stroke-miterlimit="10" d="M 19040.898438 9301.132812 L 16990.3125 9301.132812 L 13919.414062 12371.914062 " transform="matrix(0.1, 0, 0, -0.1, 0, 2100)"/>
<path fill="none" stroke-width="143.61" stroke-linecap="round" stroke-linejoin="round" stroke="rgb(0%, 0%, 0%)" stroke-opacity="1" stroke-miterlimit="10" d="M 14686.40625 9024.921875 L 12635.78125 9024.921875 L 7282.109375 14378.59375 " transform="matrix(0.1, 0, 0, -0.1, 0, 2100)"/>
<path fill="none" stroke-width="143.61" stroke-linecap="round" stroke-linejoin="round" stroke="rgb(0%, 0%, 0%)" stroke-opacity="1" stroke-miterlimit="10" d="M 13167.1875 3427.460938 L 19053.59375 -2458.984375 " transform="matrix(0.1, 0, 0, -0.1, 0, 2100)"/>
<path fill="none" stroke-width="143.61" stroke-linecap="round" stroke-linejoin="round" stroke="rgb(0%, 0%, 0%)" stroke-opacity="1" stroke-miterlimit="10" d="M 19040.898438 9301.132812 L 24927.304688 3414.6875 " transform="matrix(0.1, 0, 0, -0.1, 0, 2100)"/>
<path fill="none" stroke-width="143.61" stroke-linecap="round" stroke-linejoin="round" stroke="rgb(0%, 0%, 0%)" stroke-opacity="1" stroke-miterlimit="10" d="M 14686.40625 9024.921875 L 22611.992188 1099.335938 " transform="matrix(0.1, 0, 0, -0.1, 0, 2100)"/>
<path fill="none" stroke-width="143.61" stroke-linecap="round" stroke-linejoin="round" stroke="rgb(0%, 0%, 0%)" stroke-opacity="1" stroke-miterlimit="10" d="M 13167.1875 2615.664062 L 11116.601562 2615.664062 L 10260.507812 3471.757812 L 8870.976562 3471.757812 L 4409.335938 7933.398438 " transform="matrix(0.1, 0, 0, -0.1, 0, 2100)"/>
<path fill="none" stroke-width="143.61" stroke-linecap="round" stroke-linejoin="round" stroke="rgb(0%, 0%, 0%)" stroke-opacity="1" stroke-miterlimit="10" d="M 14686.40625 8213.164062 L 12635.78125 8213.164062 L 11779.6875 9069.21875 L 10390.195312 9069.21875 L 7967.65625 11491.71875 " transform="matrix(0.1, 0, 0, -0.1, 0, 2100)"/>
<path fill="none" stroke-width="143.61" stroke-linecap="round" stroke-linejoin="round" stroke="rgb(0%, 0%, 0%)" stroke-opacity="1" stroke-miterlimit="10" d="M 16780.195312 15604.882812 L 18806.09375 13578.984375 L 18806.09375 12298.515625 " transform="matrix(0.1, 0, 0, -0.1, 0, 2100)"/>
<path fill="none" stroke-width="143.61" stroke-linecap="round" stroke-linejoin="round" stroke="rgb(0%, 0%, 0%)" stroke-opacity="1" stroke-miterlimit="10" d="M 12051.992188 17996.71875 L 17603.710938 12444.882812 L 17603.710938 11690.585938 " transform="matrix(0.1, 0, 0, -0.1, 0, 2100)"/>
<path fill="none" stroke-width="143.61" stroke-linecap="round" stroke-linejoin="round" stroke="rgb(0%, 0%, 0%)" stroke-opacity="1" stroke-miterlimit="10" d="M 13447.8125 4853.515625 L 11397.1875 4853.515625 L 4082.460938 12168.203125 L 2692.96875 12168.203125 " transform="matrix(0.1, 0, 0, -0.1, 0, 2100)"/>
<path fill="none" stroke-width="143.61" stroke-linecap="round" stroke-linejoin="round" stroke="rgb(0%, 0%, 0%)" stroke-opacity="1" stroke-miterlimit="10" d="M 19321.484375 10727.1875 L 17270.898438 10727.1875 L 14278.203125 13719.882812 L 12888.59375 13719.882812 " transform="matrix(0.1, 0, 0, -0.1, 0, 2100)"/>
<path fill="none" stroke-width="143.61" stroke-linecap="round" stroke-linejoin="round" stroke="rgb(0%, 0%, 0%)" stroke-opacity="1" stroke-miterlimit="10" d="M 14966.992188 10451.015625 L 12916.40625 10451.015625 L 7640.820312 15726.601562 L 7640.820312 17122.617188 " transform="matrix(0.1, 0, 0, -0.1, 0, 2100)"/>
<path fill="none" stroke-width="143.61" stroke-linecap="round" stroke-linejoin="round" stroke="rgb(0%, 0%, 0%)" stroke-opacity="1" stroke-miterlimit="10" d="M 13167.1875 1803.90625 L 9050.078125 1803.90625 L 5265.390625 5588.59375 " transform="matrix(0.1, 0, 0, -0.1, 0, 2100)"/>
<path fill="none" stroke-width="143.61" stroke-linecap="round" stroke-linejoin="round" stroke="rgb(0%, 0%, 0%)" stroke-opacity="1" stroke-miterlimit="10" d="M 14686.40625 7401.367188 L 10569.296875 7401.367188 L 8823.710938 9146.914062 " transform="matrix(0.1, 0, 0, -0.1, 0, 2100)"/>
<path fill="none" stroke-width="143.61" stroke-linecap="round" stroke-linejoin="round" stroke="rgb(0%, 0%, 0%)" stroke-opacity="1" stroke-miterlimit="10" d="M 5038.671875 10218.710938 C 5011.25 10191.210938 5011.25 10146.71875 5038.671875 10119.21875 L 5138.085938 10019.804688 C 5165.546875 9992.421875 5210.078125 9992.421875 5237.5 10019.804688 L 5336.914062 10119.21875 C 5364.335938 10146.71875 5364.335938 10191.210938 5336.914062 10218.710938 L 5237.5 10318.085938 C 5210.078125 10345.507812 5165.546875 10345.507812 5138.085938 10318.085938 Z M 5038.671875 10218.710938 " transform="matrix(0.1, 0, 0, -0.1, 0, 2100)"/>
<path fill="none" stroke-width="143.61" stroke-linecap="round" stroke-linejoin="round" stroke="rgb(0%, 0%, 0%)" stroke-opacity="1" stroke-miterlimit="10" d="M 15234.414062 11770.3125 C 15206.914062 11742.890625 15206.914062 11698.398438 15234.414062 11670.898438 L 15333.789062 11571.484375 C 15361.210938 11544.101562 15405.78125 11544.101562 15433.203125 11571.484375 L 15532.617188 11670.898438 C 15560 11698.398438 15560 11742.890625 15532.617188 11770.3125 L 15433.203125 11869.804688 C 15405.78125 11897.1875 15361.210938 11897.1875 15333.789062 11869.804688 Z M 15234.414062 11770.3125 " transform="matrix(0.1, 0, 0, -0.1, 0, 2100)"/>
<path fill="none" stroke-width="143.61" stroke-linecap="round" stroke-linejoin="round" stroke="rgb(0%, 0%, 0%)" stroke-opacity="1" stroke-miterlimit="10" d="M 8597.03125 13776.992188 C 8569.609375 13749.609375 8569.609375 13705 8597.03125 13677.617188 L 8696.445312 13578.203125 C 8723.867188 13550.703125 8768.398438 13550.703125 8795.820312 13578.203125 L 8895.234375 13677.617188 C 8922.65625 13705 8922.65625 13749.609375 8895.234375 13776.992188 L 8795.820312 13876.40625 C 8768.398438 13903.789062 8723.867188 13903.789062 8696.445312 13876.40625 Z M 8597.03125 13776.992188 " transform="matrix(0.1, 0, 0, -0.1, 0, 2100)"/>
<path fill="none" stroke-width="143.61" stroke-linecap="round" stroke-linejoin="round" stroke="rgb(0%, 0%, 0%)" stroke-opacity="1" stroke-miterlimit="10" d="M 3476.5625 10970.703125 C 3449.140625 10943.203125 3449.140625 10898.710938 3476.5625 10871.289062 L 3575.976562 10771.914062 C 3603.398438 10744.414062 3647.929688 10744.414062 3675.351562 10771.914062 L 3774.765625 10871.289062 C 3802.1875 10898.710938 3802.1875 10943.203125 3774.765625 10970.703125 L 3675.351562 11070.117188 C 3647.929688 11097.5 3603.398438 11097.5 3575.976562 11070.117188 Z M 3476.5625 10970.703125 " transform="matrix(0.1, 0, 0, -0.1, 0, 2100)"/>
<path fill="none" stroke-width="143.61" stroke-linecap="round" stroke-linejoin="round" stroke="rgb(0%, 0%, 0%)" stroke-opacity="1" stroke-miterlimit="10" d="M 13672.1875 12522.382812 C 13644.804688 12494.882812 13644.804688 12450.390625 13672.1875 12423.007812 L 13771.601562 12323.59375 C 13799.101562 12296.09375 13843.59375 12296.09375 13871.09375 12323.59375 L 13970.390625 12423.007812 C 13997.890625 12450.390625 13997.890625 12494.882812 13970.390625 12522.382812 L 13871.09375 12621.796875 C 13843.59375 12649.21875 13799.101562 12649.21875 13771.601562 12621.796875 Z M 13672.1875 12522.382812 " transform="matrix(0.1, 0, 0, -0.1, 0, 2100)"/>
<path fill="none" stroke-width="143.61" stroke-linecap="round" stroke-linejoin="round" stroke="rgb(0%, 0%, 0%)" stroke-opacity="1" stroke-miterlimit="10" d="M 7034.882812 14528.984375 C 7007.460938 14501.601562 7007.460938 14456.992188 7034.882812 14429.609375 L 7134.296875 14330.195312 C 7161.71875 14302.8125 7206.289062 14302.8125 7233.710938 14330.195312 L 7333.085938 14429.609375 C 7360.546875 14456.992188 7360.546875 14501.601562 7333.085938 14528.984375 L 7233.710938 14628.398438 C 7206.289062 14655.78125 7161.71875 14655.78125 7134.296875 14628.398438 Z M 7034.882812 14528.984375 " transform="matrix(0.1, 0, 0, -0.1, 0, 2100)"/>
<path fill="none" stroke-width="143.61" stroke-linecap="round" stroke-linejoin="round" stroke="rgb(0%, 0%, 0%)" stroke-opacity="1" stroke-miterlimit="10" d="M 2482.109375 12310.390625 C 2443.28125 12310.390625 2411.796875 12278.90625 2411.796875 12240.117188 L 2411.796875 12099.609375 C 2411.796875 12060.78125 2443.28125 12029.296875 2482.109375 12029.296875 L 2622.65625 12029.296875 C 2661.445312 12029.296875 2692.96875 12060.78125 2692.96875 12099.609375 L 2692.96875 12240.117188 C 2692.96875 12278.90625 2661.445312 12310.390625 2622.65625 12310.390625 Z M 2482.109375 12310.390625 " transform="matrix(0.1, 0, 0, -0.1, 0, 2100)"/>
<path fill="none" stroke-width="143.61" stroke-linecap="round" stroke-linejoin="round" stroke="rgb(0%, 0%, 0%)" stroke-opacity="1" stroke-miterlimit="10" d="M 12677.8125 13862.109375 C 12638.984375 13862.109375 12607.5 13830.585938 12607.5 13791.796875 L 12607.5 13651.289062 C 12607.5 13612.5 12638.984375 13581.015625 12677.8125 13581.015625 L 12818.28125 13581.015625 C 12857.109375 13581.015625 12888.59375 13612.5 12888.59375 13651.289062 L 12888.59375 13791.796875 C 12888.59375 13830.585938 12857.109375 13862.109375 12818.28125 13862.109375 Z M 12677.8125 13862.109375 " transform="matrix(0.1, 0, 0, -0.1, 0, 2100)"/>
<path fill="none" stroke-width="143.61" stroke-linecap="round" stroke-linejoin="round" stroke="rgb(0%, 0%, 0%)" stroke-opacity="1" stroke-miterlimit="10" d="M 7607.890625 17436.210938 C 7569.101562 17436.210938 7537.617188 17404.6875 7537.617188 17365.898438 L 7537.617188 17225.390625 C 7537.617188 17186.601562 7569.101562 17155.117188 7607.890625 17155.117188 L 7748.476562 17155.117188 C 7787.265625 17155.117188 7818.789062 17186.601562 7818.789062 17225.390625 L 7818.789062 17365.898438 C 7818.789062 17404.6875 7787.265625 17436.210938 7748.476562 17436.210938 Z M 7607.890625 17436.210938 " transform="matrix(0.1, 0, 0, -0.1, 0, 2100)"/>
<path fill="none" stroke-width="143.61" stroke-linecap="round" stroke-linejoin="round" stroke="rgb(0%, 0%, 0%)" stroke-opacity="1" stroke-miterlimit="10" d="M 9726.289062 1027.304688 C 9687.5 1027.304688 9656.015625 995.820312 9656.015625 957.03125 L 9656.015625 816.445312 C 9656.015625 777.65625 9687.5 746.171875 9726.289062 746.171875 L 9866.875 746.171875 C 9905.664062 746.171875 9937.1875 777.65625 9937.1875 816.445312 L 9937.1875 957.03125 C 9937.1875 995.820312 9905.664062 1027.304688 9866.875 1027.304688 Z M 9726.289062 1027.304688 " transform="matrix(0.1, 0, 0, -0.1, 0, 2100)"/>
<path fill="none" stroke-width="143.61" stroke-linecap="round" stroke-linejoin="round" stroke="rgb(0%, 0%, 0%)" stroke-opacity="1" stroke-miterlimit="10" d="M 10505.3125 15115.390625 C 10466.484375 15115.390625 10435 15083.90625 10435 15045.117188 L 10435 14904.492188 C 10435 14865.703125 10466.484375 14834.21875 10505.3125 14834.21875 L 10645.898438 14834.21875 C 10684.609375 14834.21875 10716.09375 14865.703125 10716.09375 14904.492188 L 10716.09375 15045.117188 C 10716.09375 15083.90625 10684.609375 15115.390625 10645.898438 15115.390625 Z M 10505.3125 15115.390625 " transform="matrix(0.1, 0, 0, -0.1, 0, 2100)"/>
<path fill="none" stroke-width="143.61" stroke-linecap="round" stroke-linejoin="round" stroke="rgb(0%, 0%, 0%)" stroke-opacity="1" stroke-miterlimit="10" d="M 11245.507812 6624.765625 C 11206.71875 6624.765625 11175.195312 6593.28125 11175.195312 6554.492188 L 11175.195312 6413.90625 C 11175.195312 6375.117188 11206.71875 6343.632812 11245.507812 6343.632812 L 11386.09375 6343.632812 C 11424.882812 6343.632812 11456.40625 6375.117188 11456.40625 6413.90625 L 11456.40625 6554.492188 C 11456.40625 6593.28125 11424.882812 6624.765625 11386.09375 6624.765625 Z M 11245.507812 6624.765625 " transform="matrix(0.1, 0, 0, -0.1, 0, 2100)"/>
<path fill="none" stroke-width="143.61" stroke-linecap="round" stroke-linejoin="round" stroke="rgb(0%, 0%, 0%)" stroke-opacity="1" stroke-miterlimit="10" d="M 4359.648438 8181.914062 C 4332.1875 8209.335938 4287.65625 8209.335938 4260.234375 8181.914062 L 4160.820312 8082.5 C 4133.398438 8055.078125 4133.398438 8010.546875 4160.820312 7983.085938 L 4260.234375 7883.671875 C 4287.65625 7856.25 4332.1875 7856.25 4359.648438 7883.671875 L 4459.023438 7983.085938 C 4486.445312 8010.546875 4486.445312 8055.078125 4459.023438 8082.5 Z M 4359.648438 8181.914062 " transform="matrix(0.1, 0, 0, -0.1, 0, 2100)"/>
<path fill="none" stroke-width="143.61" stroke-linecap="round" stroke-linejoin="round" stroke="rgb(0%, 0%, 0%)" stroke-opacity="1" stroke-miterlimit="10" d="M 7917.96875 11740.195312 C 7890.546875 11767.695312 7845.976562 11767.695312 7818.554688 11740.195312 L 7719.140625 11640.78125 C 7691.71875 11613.398438 7691.71875 11568.90625 7719.140625 11541.40625 L 7818.554688 11441.992188 C 7845.976562 11414.609375 7890.546875 11414.609375 7917.96875 11441.992188 L 8017.382812 11541.40625 C 8044.804688 11568.90625 8044.804688 11613.398438 8017.382812 11640.78125 Z M 7917.96875 11740.195312 " transform="matrix(0.1, 0, 0, -0.1, 0, 2100)"/>
<path fill="none" stroke-width="143.61" stroke-linecap="round" stroke-linejoin="round" stroke="rgb(0%, 0%, 0%)" stroke-opacity="1" stroke-miterlimit="10" d="M 5215.703125 5837.109375 C 5188.242188 5864.53125 5143.710938 5864.53125 5116.289062 5837.109375 L 5016.875 5737.695312 C 4989.453125 5710.273438 4989.453125 5665.703125 5016.875 5638.28125 L 5116.289062 5538.867188 C 5143.710938 5511.445312 5188.242188 5511.445312 5215.703125 5538.867188 L 5315.078125 5638.28125 C 5342.539062 5665.703125 5342.539062 5710.273438 5315.078125 5737.695312 Z M 5215.703125 5837.109375 " transform="matrix(0.1, 0, 0, -0.1, 0, 2100)"/>
<path fill="none" stroke-width="143.61" stroke-linecap="round" stroke-linejoin="round" stroke="rgb(0%, 0%, 0%)" stroke-opacity="1" stroke-miterlimit="10" d="M 8774.023438 9395.429688 C 8746.601562 9422.851562 8702.03125 9422.851562 8674.609375 9395.429688 L 8575.195312 9296.015625 C 8547.773438 9268.59375 8547.773438 9224.0625 8575.195312 9196.601562 L 8674.609375 9097.226562 C 8702.03125 9069.765625 8746.601562 9069.765625 8774.023438 9097.226562 L 8873.4375 9196.601562 C 8900.859375 9224.0625 8900.859375 9268.59375 8873.4375 9296.015625 Z M 8774.023438 9395.429688 " transform="matrix(0.1, 0, 0, -0.1, 0, 2100)"/>
<path fill="none" stroke-width="143.61" stroke-linecap="round" stroke-linejoin="round" stroke="rgb(0%, 0%, 0%)" stroke-opacity="1" stroke-miterlimit="10" d="M 13059.882812 1247.460938 C 13032.5 1274.882812 12987.890625 1274.882812 12960.507812 1247.460938 L 12861.09375 1148.046875 C 12833.710938 1120.625 12833.710938 1076.054688 12861.09375 1048.632812 L 12960.507812 949.21875 C 12987.890625 921.796875 13032.5 921.796875 13059.882812 949.21875 L 13159.296875 1048.632812 C 13186.796875 1076.054688 13186.796875 1120.625 13159.296875 1148.046875 Z M 13059.882812 1247.460938 " transform="matrix(0.1, 0, 0, -0.1, 0, 2100)"/>
<path fill="none" stroke-width="143.61" stroke-linecap="round" stroke-linejoin="round" stroke="rgb(0%, 0%, 0%)" stroke-opacity="1" stroke-miterlimit="10" d="M 8770.15625 15951.71875 C 8742.734375 15979.21875 8698.203125 15979.21875 8670.742188 15951.71875 L 8571.367188 15852.304688 C 8543.90625 15824.882812 8543.90625 15780.3125 8571.367188 15752.890625 L 8670.742188 15653.515625 C 8698.203125 15626.09375 8742.734375 15626.09375 8770.15625 15653.515625 L 8869.570312 15752.890625 C 8896.992188 15780.3125 8896.992188 15824.882812 8869.570312 15852.304688 Z M 8770.15625 15951.71875 " transform="matrix(0.1, 0, 0, -0.1, 0, 2100)"/>
<path fill="none" stroke-width="143.61" stroke-linecap="round" stroke-linejoin="round" stroke="rgb(0%, 0%, 0%)" stroke-opacity="1" stroke-miterlimit="10" d="M 13336.289062 11385.585938 C 13308.90625 11413.007812 13264.296875 11413.007812 13236.914062 11385.585938 L 13137.5 11286.210938 C 13110.117188 11258.789062 13110.117188 11214.21875 13137.5 11186.796875 L 13236.914062 11087.382812 C 13264.296875 11059.882812 13308.90625 11059.882812 13336.289062 11087.382812 L 13435.703125 11186.796875 C 13463.085938 11214.21875 13463.085938 11258.789062 13435.703125 11286.210938 Z M 13336.289062 11385.585938 " transform="matrix(0.1, 0, 0, -0.1, 0, 2100)"/>
<path fill="none" stroke-width="143.61" stroke-linecap="round" stroke-linejoin="round" stroke="rgb(0%, 0%, 0%)" stroke-opacity="1" stroke-miterlimit="10" d="M 14579.101562 6844.921875 C 14551.71875 6872.34375 14507.109375 6872.34375 14479.6875 6844.921875 L 14380.3125 6745.507812 C 14352.890625 6718.085938 14352.890625 6673.554688 14380.3125 6646.09375 L 14479.6875 6546.71875 C 14507.109375 6519.257812 14551.71875 6519.257812 14579.101562 6546.71875 L 14678.515625 6646.09375 C 14705.898438 6673.554688 14705.898438 6718.085938 14678.515625 6745.507812 Z M 14579.101562 6844.921875 " transform="matrix(0.1, 0, 0, -0.1, 0, 2100)"/>
<path fill="none" stroke-width="143.61" stroke-linecap="round" stroke-linejoin="round" stroke="rgb(0%, 0%, 0%)" stroke-opacity="1" stroke-miterlimit="10" d="M 12115.195312 302.734375 C 12087.8125 330.195312 12043.203125 330.195312 12015.78125 302.734375 L 11916.40625 203.359375 C 11888.984375 175.898438 11888.984375 131.367188 11916.40625 103.945312 L 12015.78125 4.53125 C 12043.203125 -22.890625 12087.8125 -22.890625 12115.195312 4.53125 L 12214.609375 103.945312 C 12242.109375 131.367188 12242.109375 175.898438 12214.609375 203.359375 Z M 12115.195312 302.734375 " transform="matrix(0.1, 0, 0, -0.1, 0, 2100)"/>
<path fill="none" stroke-width="143.61" stroke-linecap="round" stroke-linejoin="round" stroke="rgb(0%, 0%, 0%)" stroke-opacity="1" stroke-miterlimit="10" d="M 12220.390625 16060.390625 C 12247.8125 16032.890625 12247.8125 15988.398438 12220.390625 15960.898438 L 12121.015625 15861.484375 C 12093.515625 15834.101562 12048.984375 15834.101562 12021.601562 15861.484375 L 11922.1875 15960.898438 C 11894.6875 15988.398438 11894.6875 16032.890625 11922.1875 16060.390625 L 12021.601562 16159.804688 C 12048.984375 16187.1875 12093.515625 16187.1875 12121.015625 16159.804688 Z M 12220.390625 16060.390625 " transform="matrix(0.1, 0, 0, -0.1, 0, 2100)"/>
<path fill="none" stroke-width="143.61" stroke-linecap="round" stroke-linejoin="round" stroke="rgb(0%, 0%, 0%)" stroke-opacity="1" stroke-miterlimit="10" d="M 9249.335938 19031.40625 C 9276.796875 19003.90625 9276.796875 18959.414062 9249.335938 18931.992188 L 9149.960938 18832.617188 C 9122.539062 18805.117188 9077.96875 18805.117188 9050.546875 18832.617188 L 8951.132812 18931.992188 C 8923.710938 18959.414062 8923.710938 19003.90625 8951.132812 19031.40625 L 9050.546875 19130.78125 C 9077.96875 19158.203125 9122.539062 19158.203125 9149.960938 19130.78125 Z M 9249.335938 19031.40625 " transform="matrix(0.1, 0, 0, -0.1, 0, 2100)"/>
<path fill="none" stroke-width="143.61" stroke-linecap="round" stroke-linejoin="round" stroke="rgb(0%, 0%, 0%)" stroke-opacity="1" stroke-miterlimit="10" d="M 19451.71875 7655.507812 C 19424.296875 7682.929688 19424.296875 7727.460938 19451.71875 7754.882812 L 19551.09375 7854.296875 C 19578.515625 7881.71875 19623.085938 7881.71875 19650.507812 7854.296875 L 19749.882812 7754.882812 C 19777.382812 7727.460938 19777.382812 7682.929688 19749.882812 7655.507812 L 19650.507812 7556.09375 C 19623.085938 7528.632812 19578.515625 7528.632812 19551.09375 7556.09375 Z M 19451.71875 7655.507812 " transform="matrix(0.1, 0, 0, -0.1, 0, 2100)"/>
<path fill="none" stroke-width="143.61" stroke-linecap="round" stroke-linejoin="round" stroke="rgb(0%, 0%, 0%)" stroke-opacity="1" stroke-miterlimit="10" d="M 17533.398438 11409.414062 C 17494.6875 11409.414062 17463.203125 11440.898438 17463.203125 11479.6875 L 17463.203125 11620.3125 C 17463.203125 11659.101562 17494.6875 11690.585938 17533.398438 11690.585938 L 17673.984375 11690.585938 C 17712.8125 11690.585938 17744.296875 11659.101562 17744.296875 11620.3125 L 17744.296875 11479.6875 C 17744.296875 11440.898438 17712.8125 11409.414062 17673.984375 11409.414062 Z M 17533.398438 11409.414062 " transform="matrix(0.1, 0, 0, -0.1, 0, 2100)"/>
<path fill="none" stroke-width="143.61" stroke-linecap="round" stroke-linejoin="round" stroke="rgb(0%, 0%, 0%)" stroke-opacity="1" stroke-miterlimit="10" d="M 13634.414062 5900.234375 C 13606.992188 5927.65625 13562.382812 5927.65625 13535 5900.234375 L 13435.585938 5800.820312 C 13408.203125 5773.398438 13408.203125 5728.828125 13435.585938 5701.40625 L 13535 5601.992188 C 13562.382812 5574.570312 13606.992188 5574.570312 13634.414062 5601.992188 L 13733.789062 5701.40625 C 13761.289062 5728.828125 13761.289062 5773.398438 13733.789062 5800.820312 Z M 13634.414062 5900.234375 " transform="matrix(0.1, 0, 0, -0.1, 0, 2100)"/>
<path fill="none" stroke-width="143.61" stroke-linecap="round" stroke-linejoin="round" stroke="rgb(0%, 0%, 0%)" stroke-opacity="1" stroke-miterlimit="10" d="M 13352.382812 61.328125 C 13324.882812 88.75 13280.390625 88.75 13253.007812 61.328125 L 13153.59375 -38.085938 C 13126.09375 -65.507812 13126.09375 -110.039062 13153.59375 -137.460938 L 13253.007812 -236.875 C 13280.390625 -264.296875 13324.882812 -264.296875 13352.382812 -236.875 L 13451.796875 -137.460938 C 13479.21875 -110.039062 13479.21875 -65.507812 13451.796875 -38.085938 Z M 13352.382812 61.328125 " transform="matrix(0.1, 0, 0, -0.1, 0, 2100)"/>
<path fill="none" stroke-width="143.61" stroke-linecap="round" stroke-linejoin="round" stroke="rgb(0%, 0%, 0%)" stroke-opacity="1" stroke-miterlimit="10" d="M 17865.195312 8246.25 C 17837.8125 8273.671875 17837.8125 8318.203125 17865.195312 8345.625 L 17964.609375 8445.039062 C 17991.992188 8472.460938 18036.601562 8472.460938 18063.984375 8445.039062 L 18163.398438 8345.625 C 18190.898438 8318.203125 18190.898438 8273.671875 18163.398438 8246.25 L 18063.984375 8146.835938 C 18036.601562 8119.414062 17991.992188 8119.414062 17964.609375 8146.835938 Z M 17865.195312 8246.25 " transform="matrix(0.1, 0, 0, -0.1, 0, 2100)"/>
<path fill="none" stroke-width="143.61" stroke-linecap="round" stroke-linejoin="round" stroke="rgb(0%, 0%, 0%)" stroke-opacity="1" stroke-miterlimit="10" d="M 14871.601562 5658.828125 C 14844.101562 5686.25 14799.609375 5686.25 14772.1875 5658.828125 L 14672.8125 5559.414062 C 14645.3125 5531.953125 14645.3125 5487.421875 14672.8125 5460 L 14772.1875 5360.585938 C 14799.609375 5333.164062 14844.101562 5333.164062 14871.601562 5360.585938 L 14971.015625 5460 C 14998.398438 5487.421875 14998.398438 5531.953125 14971.015625 5559.414062 Z M 14871.601562 5658.828125 " transform="matrix(0.1, 0, 0, -0.1, 0, 2100)"/>
<path fill="none" stroke-width="143.61" stroke-linecap="round" stroke-linejoin="round" stroke="rgb(0%, 0%, 0%)" stroke-opacity="1" stroke-miterlimit="10" d="M 12881.210938 532.539062 C 12853.789062 559.960938 12809.21875 559.960938 12781.796875 532.539062 L 12682.382812 433.125 C 12654.882812 405.703125 12654.882812 361.171875 12682.382812 333.710938 L 12781.796875 234.335938 C 12809.21875 206.875 12853.789062 206.875 12881.210938 234.335938 L 12980.585938 333.710938 C 13008.007812 361.171875 13008.007812 405.703125 12980.585938 433.125 Z M 12881.210938 532.539062 " transform="matrix(0.1, 0, 0, -0.1, 0, 2100)"/>
<path fill="none" stroke-width="143.61" stroke-linecap="round" stroke-linejoin="round" stroke="rgb(0%, 0%, 0%)" stroke-opacity="1" stroke-miterlimit="10" d="M 13660.195312 14620.585938 C 13632.695312 14648.007812 13588.203125 14648.007812 13560.703125 14620.585938 L 13461.289062 14521.210938 C 13433.90625 14493.710938 13433.90625 14449.21875 13461.289062 14421.796875 L 13560.703125 14322.382812 C 13588.203125 14294.882812 13632.695312 14294.882812 13660.195312 14322.382812 L 13759.609375 14421.796875 C 13786.992188 14449.21875 13786.992188 14493.710938 13759.609375 14521.210938 Z M 13660.195312 14620.585938 " transform="matrix(0.1, 0, 0, -0.1, 0, 2100)"/>
<path fill="none" stroke-width="143.61" stroke-linecap="round" stroke-linejoin="round" stroke="rgb(0%, 0%, 0%)" stroke-opacity="1" stroke-miterlimit="10" d="M 14400.390625 6130 C 14372.890625 6157.421875 14328.398438 6157.421875 14301.015625 6130 L 14201.601562 6030.585938 C 14174.101562 6003.164062 14174.101562 5958.632812 14201.601562 5931.171875 L 14301.015625 5831.796875 C 14328.398438 5804.375 14372.890625 5804.375 14400.390625 5831.796875 L 14499.804688 5931.171875 C 14527.1875 5958.632812 14527.1875 6003.164062 14499.804688 6030.585938 Z M 14400.390625 6130 " transform="matrix(0.1, 0, 0, -0.1, 0, 2100)"/>
<path fill="none" stroke-width="143.61" stroke-linecap="round" stroke-linejoin="round" stroke="rgb(0%, 0%, 0%)" stroke-opacity="1" stroke-miterlimit="10" d="M 16531.71875 15654.609375 C 16504.21875 15681.992188 16504.21875 15726.601562 16531.71875 15753.984375 L 16631.09375 15853.398438 C 16658.515625 15880.78125 16703.007812 15880.78125 16730.507812 15853.398438 L 16829.882812 15753.984375 C 16857.304688 15726.601562 16857.304688 15681.992188 16829.882812 15654.609375 L 16730.507812 15555.195312 C 16703.007812 15527.8125 16658.515625 15527.8125 16631.09375 15555.195312 Z M 16531.71875 15654.609375 " transform="matrix(0.1, 0, 0, -0.1, 0, 2100)"/>
<path fill="none" stroke-width="143.61" stroke-linecap="round" stroke-linejoin="round" stroke="rgb(0%, 0%, 0%)" stroke-opacity="1" stroke-miterlimit="10" d="M 13978.398438 16927.304688 C 13951.015625 16954.804688 13951.015625 16999.296875 13978.398438 17026.71875 L 14077.8125 17126.09375 C 14105.3125 17153.59375 14149.804688 17153.59375 14177.1875 17126.09375 L 14276.601562 17026.71875 C 14304.101562 16999.296875 14304.101562 16954.804688 14276.601562 16927.304688 L 14177.1875 16827.890625 C 14149.804688 16800.507812 14105.3125 16800.507812 14077.8125 16827.890625 Z M 13978.398438 16927.304688 " transform="matrix(0.1, 0, 0, -0.1, 0, 2100)"/>
<path fill="none" stroke-width="143.61" stroke-linecap="round" stroke-linejoin="round" stroke="rgb(0%, 0%, 0%)" stroke-opacity="1" stroke-miterlimit="10" d="M 11803.515625 18046.40625 C 11776.015625 18073.789062 11776.015625 18118.398438 11803.515625 18145.78125 L 11902.890625 18245.195312 C 11930.3125 18272.695312 11974.804688 18272.695312 12002.304688 18245.195312 L 12101.71875 18145.78125 C 12129.101562 18118.398438 12129.101562 18073.789062 12101.71875 18046.40625 L 12002.304688 17946.992188 C 11974.804688 17919.609375 11930.3125 17919.609375 11902.890625 17946.992188 Z M 11803.515625 18046.40625 " transform="matrix(0.1, 0, 0, -0.1, 0, 2100)"/>
<path fill="none" stroke-width="143.61" stroke-linecap="round" stroke-linejoin="round" stroke="rgb(0%, 0%, 0%)" stroke-opacity="1" stroke-miterlimit="10" d="M 13167.1875 2615.664062 L 18647.695312 -2864.882812 " transform="matrix(0.1, 0, 0, -0.1, 0, 2100)"/>
<path fill="none" stroke-width="143.61" stroke-linecap="round" stroke-linejoin="round" stroke="rgb(0%, 0%, 0%)" stroke-opacity="1" stroke-miterlimit="10" d="M 14686.40625 8213.164062 L 22206.09375 693.476562 " transform="matrix(0.1, 0, 0, -0.1, 0, 2100)"/>
<path fill="none" stroke-width="143.61" stroke-linecap="round" stroke-linejoin="round" stroke="rgb(0%, 0%, 0%)" stroke-opacity="1" stroke-miterlimit="10" d="M 13447.8125 4853.515625 L 19906.914062 -1605.664062 " transform="matrix(0.1, 0, 0, -0.1, 0, 2100)"/>
<path fill="none" stroke-width="143.61" stroke-linecap="round" stroke-linejoin="round" stroke="rgb(0%, 0%, 0%)" stroke-opacity="1" stroke-miterlimit="10" d="M 19321.484375 10727.1875 L 25780.585938 4268.046875 " transform="matrix(0.1, 0, 0, -0.1, 0, 2100)"/>
<path fill="none" stroke-width="143.61" stroke-linecap="round" stroke-linejoin="round" stroke="rgb(0%, 0%, 0%)" stroke-opacity="1" stroke-miterlimit="10" d="M 14966.992188 10451.015625 L 23465.3125 1952.695312 " transform="matrix(0.1, 0, 0, -0.1, 0, 2100)"/>
<path fill="none" stroke-width="143.61" stroke-linecap="round" stroke-linejoin="round" stroke="rgb(0%, 0%, 0%)" stroke-opacity="1" stroke-miterlimit="10" d="M 13167.1875 1803.90625 L 18241.796875 -3270.742188 " transform="matrix(0.1, 0, 0, -0.1, 0, 2100)"/>
<path fill="none" stroke-width="143.61" stroke-linecap="round" stroke-linejoin="round" stroke="rgb(0%, 0%, 0%)" stroke-opacity="1" stroke-miterlimit="10" d="M 14686.40625 7401.367188 L 21800.195312 287.578125 " transform="matrix(0.1, 0, 0, -0.1, 0, 2100)"/>
<path fill="none" stroke-width="143.61" stroke-linecap="round" stroke-linejoin="round" stroke="rgb(0%, 0%, 0%)" stroke-opacity="1" stroke-miterlimit="10" d="M 14226.914062 16877.617188 L 26308.59375 4795.976562 " transform="matrix(0.1, 0, 0, -0.1, 0, 2100)"/>
<path fill="none" stroke-width="143.61" stroke-linecap="round" stroke-linejoin="round" stroke="rgb(0%, 0%, 0%)" stroke-opacity="1" stroke-miterlimit="10" d="M 13109.609375 998.945312 L 17810.585938 -3702.03125 " transform="matrix(0.1, 0, 0, -0.1, 0, 2100)"/>
<path fill="none" stroke-width="143.61" stroke-linecap="round" stroke-linejoin="round" stroke="rgb(0%, 0%, 0%)" stroke-opacity="1" stroke-miterlimit="10" d="M 8819.84375 15703.203125 L 13187.1875 11335.898438 " transform="matrix(0.1, 0, 0, -0.1, 0, 2100)"/>
<path fill="none" stroke-width="143.61" stroke-linecap="round" stroke-linejoin="round" stroke="rgb(0%, 0%, 0%)" stroke-opacity="1" stroke-miterlimit="10" d="M 14628.789062 6596.40625 L 21368.90625 -143.671875 " transform="matrix(0.1, 0, 0, -0.1, 0, 2100)"/>
<path fill="none" stroke-width="143.61" stroke-linecap="round" stroke-linejoin="round" stroke="rgb(0%, 0%, 0%)" stroke-opacity="1" stroke-miterlimit="10" d="M 12164.882812 54.257812 L 16865.898438 -4646.71875 " transform="matrix(0.1, 0, 0, -0.1, 0, 2100)"/>
<path fill="none" stroke-width="143.61" stroke-linecap="round" stroke-linejoin="round" stroke="rgb(0%, 0%, 0%)" stroke-opacity="1" stroke-miterlimit="10" d="M 11971.914062 16110.117188 L 9199.648438 18882.304688 " transform="matrix(0.1, 0, 0, -0.1, 0, 2100)"/>
<path fill="none" stroke-width="143.61" stroke-linecap="round" stroke-linejoin="round" stroke="rgb(0%, 0%, 0%)" stroke-opacity="1" stroke-miterlimit="10" d="M 19700.195312 7605.78125 L 24401.210938 2904.84375 " transform="matrix(0.1, 0, 0, -0.1, 0, 2100)"/>
<path fill="none" stroke-width="143.61" stroke-linecap="round" stroke-linejoin="round" stroke="rgb(0%, 0%, 0%)" stroke-opacity="1" stroke-miterlimit="10" d="M 13684.101562 5651.71875 L 20424.21875 -1088.398438 " transform="matrix(0.1, 0, 0, -0.1, 0, 2100)"/>
<path fill="none" stroke-width="143.61" stroke-linecap="round" stroke-linejoin="round" stroke="rgb(0%, 0%, 0%)" stroke-opacity="1" stroke-miterlimit="10" d="M 18113.710938 8196.523438 L 23903.28125 2406.953125 " transform="matrix(0.1, 0, 0, -0.1, 0, 2100)"/>
<path fill="none" stroke-width="143.61" stroke-linecap="round" stroke-linejoin="round" stroke="rgb(0%, 0%, 0%)" stroke-opacity="1" stroke-miterlimit="10" d="M 14921.289062 5410.3125 L 20922.109375 -590.507812 " transform="matrix(0.1, 0, 0, -0.1, 0, 2100)"/>
<path fill="none" stroke-width="143.61" stroke-linecap="round" stroke-linejoin="round" stroke="rgb(0%, 0%, 0%)" stroke-opacity="1" stroke-miterlimit="10" d="M 12732.109375 482.8125 L 12326.289062 888.59375 " transform="matrix(0.1, 0, 0, -0.1, 0, 2100)"/>
<path fill="none" stroke-width="143.61" stroke-linecap="round" stroke-linejoin="round" stroke="rgb(0%, 0%, 0%)" stroke-opacity="1" stroke-miterlimit="10" d="M 13511.015625 14570.898438 L 13105.3125 14976.71875 " transform="matrix(0.1, 0, 0, -0.1, 0, 2100)"/>
<path fill="none" stroke-width="143.61" stroke-linecap="round" stroke-linejoin="round" stroke="rgb(0%, 0%, 0%)" stroke-opacity="1" stroke-miterlimit="10" d="M 14251.289062 6080.3125 L 13845.507812 6486.09375 " transform="matrix(0.1, 0, 0, -0.1, 0, 2100)"/>
<path fill="none" stroke-width="143.61" stroke-linecap="round" stroke-linejoin="round" stroke="rgb(0%, 0%, 0%)" stroke-opacity="1" stroke-miterlimit="10" d="M 12326.289062 888.59375 L 9937.1875 888.59375 " transform="matrix(0.1, 0, 0, -0.1, 0, 2100)"/>
<path fill="none" stroke-width="143.61" stroke-linecap="round" stroke-linejoin="round" stroke="rgb(0%, 0%, 0%)" stroke-opacity="1" stroke-miterlimit="10" d="M 13105.3125 14976.71875 L 10716.09375 14976.71875 " transform="matrix(0.1, 0, 0, -0.1, 0, 2100)"/>
<path fill="none" stroke-width="143.61" stroke-linecap="round" stroke-linejoin="round" stroke="rgb(0%, 0%, 0%)" stroke-opacity="1" stroke-miterlimit="10" d="M 13845.507812 6486.09375 L 11456.40625 6486.09375 " transform="matrix(0.1, 0, 0, -0.1, 0, 2100)"/>
<path fill="none" stroke-width="143.61" stroke-linecap="round" stroke-linejoin="round" stroke="rgb(0%, 0%, 0%)" stroke-opacity="1" stroke-miterlimit="10" d="M 10820.390625 52.578125 L 12846.289062 -1973.359375 L 12846.289062 -3253.828125 " transform="matrix(0.1, 0, 0, -0.1, 0, 2100)"/>
<path fill="none" stroke-width="143.61" stroke-linecap="round" stroke-linejoin="round" stroke="rgb(0%, 0%, 0%)" stroke-opacity="1" stroke-miterlimit="10" d="M 6092.1875 2444.414062 L 11643.984375 -3107.382812 L 11643.984375 -3861.71875 " transform="matrix(0.1, 0, 0, -0.1, 0, 2100)"/>
<path fill="none" stroke-width="143.61" stroke-linecap="round" stroke-linejoin="round" stroke="rgb(0%, 0%, 0%)" stroke-opacity="1" stroke-miterlimit="10" d="M 9007.1875 -5101.328125 L 6956.601562 -5101.328125 L 1681.054688 174.21875 L 1681.054688 1570.273438 " transform="matrix(0.1, 0, 0, -0.1, 0, 2100)"/>
<path fill="none" stroke-width="143.61" stroke-linecap="round" stroke-linejoin="round" stroke="rgb(0%, 0%, 0%)" stroke-opacity="1" stroke-miterlimit="10" d="M 1648.125 1883.90625 C 1609.335938 1883.90625 1577.851562 1852.421875 1577.851562 1813.632812 L 1577.851562 1673.046875 C 1577.851562 1634.257812 1609.335938 1602.773438 1648.125 1602.773438 L 1788.710938 1602.773438 C 1827.5 1602.773438 1858.984375 1634.257812 1858.984375 1673.046875 L 1858.984375 1813.632812 C 1858.984375 1852.421875 1827.5 1883.90625 1788.710938 1883.90625 Z M 1648.125 1883.90625 " transform="matrix(0.1, 0, 0, -0.1, 0, 2100)"/>
<path fill="none" stroke-width="143.61" stroke-linecap="round" stroke-linejoin="round" stroke="rgb(0%, 0%, 0%)" stroke-opacity="1" stroke-miterlimit="10" d="M 2810.390625 399.414062 C 2782.96875 426.835938 2738.4375 426.835938 2710.976562 399.414062 L 2611.5625 300 C 2584.140625 272.578125 2584.140625 228.046875 2611.5625 200.585938 L 2710.976562 101.171875 C 2738.4375 73.75 2782.96875 73.75 2810.390625 101.171875 L 2909.804688 200.585938 C 2937.226562 228.046875 2937.226562 272.578125 2909.804688 300 Z M 2810.390625 399.414062 " transform="matrix(0.1, 0, 0, -0.1, 0, 2100)"/>
<path fill="none" stroke-width="143.61" stroke-linecap="round" stroke-linejoin="round" stroke="rgb(0%, 0%, 0%)" stroke-opacity="1" stroke-miterlimit="10" d="M 6260.585938 508.046875 C 6288.046875 480.625 6288.046875 436.054688 6260.585938 408.632812 L 6161.210938 309.21875 C 6133.789062 281.796875 6089.21875 281.796875 6061.796875 309.21875 L 5962.382812 408.632812 C 5934.960938 436.054688 5934.960938 480.625 5962.382812 508.046875 L 6061.796875 607.460938 C 6089.21875 634.882812 6133.789062 634.882812 6161.210938 607.460938 Z M 6260.585938 508.046875 " transform="matrix(0.1, 0, 0, -0.1, 0, 2100)"/>
<path fill="none" stroke-width="143.61" stroke-linecap="round" stroke-linejoin="round" stroke="rgb(0%, 0%, 0%)" stroke-opacity="1" stroke-miterlimit="10" d="M 3289.609375 3479.0625 C 3317.03125 3451.601562 3317.03125 3407.070312 3289.609375 3379.648438 L 3190.195312 3280.234375 C 3162.734375 3252.8125 3118.203125 3252.8125 3090.78125 3280.234375 L 2991.367188 3379.648438 C 2963.945312 3407.070312 2963.945312 3451.601562 2991.367188 3479.0625 L 3090.78125 3578.476562 C 3118.203125 3605.898438 3162.734375 3605.898438 3190.195312 3578.476562 Z M 3289.609375 3479.0625 " transform="matrix(0.1, 0, 0, -0.1, 0, 2100)"/>
<path fill="none" stroke-width="143.61" stroke-linecap="round" stroke-linejoin="round" stroke="rgb(0%, 0%, 0%)" stroke-opacity="1" stroke-miterlimit="10" d="M 10571.914062 102.304688 C 10544.492188 129.726562 10544.492188 174.257812 10571.914062 201.679688 L 10671.289062 301.09375 C 10698.710938 328.515625 10743.28125 328.515625 10770.703125 301.09375 L 10870.117188 201.679688 C 10897.5 174.257812 10897.5 129.726562 10870.117188 102.304688 L 10770.703125 2.890625 C 10743.28125 -24.570312 10698.710938 -24.570312 10671.289062 2.890625 Z M 10571.914062 102.304688 " transform="matrix(0.1, 0, 0, -0.1, 0, 2100)"/>
<path fill="none" stroke-width="143.61" stroke-linecap="round" stroke-linejoin="round" stroke="rgb(0%, 0%, 0%)" stroke-opacity="1" stroke-miterlimit="10" d="M 8018.671875 1375.039062 C 7991.210938 1402.460938 7991.210938 1446.992188 8018.671875 1474.414062 L 8118.046875 1573.828125 C 8145.507812 1601.25 8190.039062 1601.25 8217.460938 1573.828125 L 8316.875 1474.414062 C 8344.296875 1446.992188 8344.296875 1402.460938 8316.875 1375.039062 L 8217.460938 1275.625 C 8190.039062 1248.203125 8145.507812 1248.203125 8118.046875 1275.625 Z M 8018.671875 1375.039062 " transform="matrix(0.1, 0, 0, -0.1, 0, 2100)"/>
<path fill="none" stroke-width="143.61" stroke-linecap="round" stroke-linejoin="round" stroke="rgb(0%, 0%, 0%)" stroke-opacity="1" stroke-miterlimit="10" d="M 5843.671875 2494.101562 C 5816.25 2521.523438 5816.25 2566.054688 5843.671875 2593.515625 L 5943.085938 2692.890625 C 5970.546875 2720.351562 6015.078125 2720.351562 6042.5 2692.890625 L 6141.914062 2593.515625 C 6169.335938 2566.054688 6169.335938 2521.523438 6141.914062 2494.101562 L 6042.5 2394.6875 C 6015.078125 2367.265625 5970.546875 2367.265625 5943.085938 2394.6875 Z M 5843.671875 2494.101562 " transform="matrix(0.1, 0, 0, -0.1, 0, 2100)"/>
<path fill="none" stroke-width="143.61" stroke-linecap="round" stroke-linejoin="round" stroke="rgb(0%, 0%, 0%)" stroke-opacity="1" stroke-miterlimit="10" d="M 8267.1875 1325.3125 L 20348.789062 -10756.289062 " transform="matrix(0.1, 0, 0, -0.1, 0, 2100)"/>
<path fill="none" stroke-width="143.61" stroke-linecap="round" stroke-linejoin="round" stroke="rgb(0%, 0%, 0%)" stroke-opacity="1" stroke-miterlimit="10" d="M 2860.117188 150.898438 L 7227.421875 -4216.445312 " transform="matrix(0.1, 0, 0, -0.1, 0, 2100)"/>
<path fill="none" stroke-width="143.61" stroke-linecap="round" stroke-linejoin="round" stroke="rgb(0%, 0%, 0%)" stroke-opacity="1" stroke-miterlimit="10" d="M 6012.109375 557.734375 L 3239.882812 3329.960938 " transform="matrix(0.1, 0, 0, -0.1, 0, 2100)"/>
<path fill="none" stroke-width="143.61" stroke-linecap="round" stroke-linejoin="round" stroke="rgb(0%, 0%, 0%)" stroke-opacity="1" stroke-miterlimit="10" d="M 24929.6875 14103.984375 L 18710.507812 20323.203125 L 16659.882812 20323.203125 L 10756.992188 26226.210938 " transform="matrix(0.1, 0, 0, -0.1, 0, 2100)"/>
<path fill="none" stroke-width="143.61" stroke-linecap="round" stroke-linejoin="round" stroke="rgb(0%, 0%, 0%)" stroke-opacity="1" stroke-miterlimit="10" d="M 30803.398438 19977.695312 L 24584.21875 26196.914062 L 22533.59375 26196.914062 L 20952.617188 27777.890625 " transform="matrix(0.1, 0, 0, -0.1, 0, 2100)"/>
<path fill="none" stroke-width="143.61" stroke-linecap="round" stroke-linejoin="round" stroke="rgb(0%, 0%, 0%)" stroke-opacity="1" stroke-miterlimit="10" d="M 28488.085938 17662.382812 L 20229.6875 25920.703125 L 18179.101562 25920.703125 L 14315.3125 29784.492188 " transform="matrix(0.1, 0, 0, -0.1, 0, 2100)"/>
<path fill="none" stroke-width="143.61" stroke-linecap="round" stroke-linejoin="round" stroke="rgb(0%, 0%, 0%)" stroke-opacity="1" stroke-miterlimit="10" d="M 18637.382812 19584.609375 L 16586.796875 19584.609375 L 9193.984375 26977.382812 " transform="matrix(0.1, 0, 0, -0.1, 0, 2100)"/>
<path fill="none" stroke-width="143.61" stroke-linecap="round" stroke-linejoin="round" stroke="rgb(0%, 0%, 0%)" stroke-opacity="1" stroke-miterlimit="10" d="M 18637.382812 19584.609375 L 24523.90625 13698.085938 " transform="matrix(0.1, 0, 0, -0.1, 0, 2100)"/>
<path fill="none" stroke-width="143.61" stroke-linecap="round" stroke-linejoin="round" stroke="rgb(0%, 0%, 0%)" stroke-opacity="1" stroke-miterlimit="10" d="M 20156.601562 25181.992188 L 28082.1875 17256.484375 " transform="matrix(0.1, 0, 0, -0.1, 0, 2100)"/>
<path fill="none" stroke-width="143.61" stroke-linecap="round" stroke-linejoin="round" stroke="rgb(0%, 0%, 0%)" stroke-opacity="1" stroke-miterlimit="10" d="M 18637.382812 18772.8125 L 16586.796875 18772.8125 L 15730.703125 19628.90625 L 14341.210938 19628.90625 L 9879.570312 24090.507812 " transform="matrix(0.1, 0, 0, -0.1, 0, 2100)"/>
<path fill="none" stroke-width="143.61" stroke-linecap="round" stroke-linejoin="round" stroke="rgb(0%, 0%, 0%)" stroke-opacity="1" stroke-miterlimit="10" d="M 18918.007812 21010.585938 L 16867.382812 21010.585938 L 9552.695312 28325.3125 L 8163.203125 28325.3125 " transform="matrix(0.1, 0, 0, -0.1, 0, 2100)"/>
<path fill="none" stroke-width="143.61" stroke-linecap="round" stroke-linejoin="round" stroke="rgb(0%, 0%, 0%)" stroke-opacity="1" stroke-miterlimit="10" d="M 18637.382812 17961.015625 L 14520.3125 17961.015625 L 10735.585938 21745.703125 " transform="matrix(0.1, 0, 0, -0.1, 0, 2100)"/>
<path fill="none" stroke-width="143.61" stroke-linecap="round" stroke-linejoin="round" stroke="rgb(0%, 0%, 0%)" stroke-opacity="1" stroke-miterlimit="10" d="M 15196.484375 17184.414062 C 15157.695312 17184.414062 15126.289062 17152.890625 15126.289062 17114.101562 L 15126.289062 16973.59375 C 15126.289062 16934.804688 15157.695312 16903.28125 15196.484375 16903.28125 L 15337.109375 16903.28125 C 15375.898438 16903.28125 15407.382812 16934.804688 15407.382812 16973.59375 L 15407.382812 17114.101562 C 15407.382812 17152.890625 15375.898438 17184.414062 15337.109375 17184.414062 Z M 15196.484375 17184.414062 " transform="matrix(0.1, 0, 0, -0.1, 0, 2100)"/>
<path fill="none" stroke-width="143.61" stroke-linecap="round" stroke-linejoin="round" stroke="rgb(0%, 0%, 0%)" stroke-opacity="1" stroke-miterlimit="10" d="M 18530.195312 17404.609375 C 18502.695312 17431.992188 18458.203125 17431.992188 18430.703125 17404.609375 L 18331.289062 17305.195312 C 18303.90625 17277.695312 18303.90625 17233.203125 18331.289062 17205.78125 L 18430.703125 17106.40625 C 18458.203125 17078.90625 18502.695312 17078.90625 18530.195312 17106.40625 L 18629.609375 17205.78125 C 18656.992188 17233.203125 18656.992188 17277.695312 18629.609375 17305.195312 Z M 18530.195312 17404.609375 " transform="matrix(0.1, 0, 0, -0.1, 0, 2100)"/>
<path fill="none" stroke-width="143.61" stroke-linecap="round" stroke-linejoin="round" stroke="rgb(0%, 0%, 0%)" stroke-opacity="1" stroke-miterlimit="10" d="M 17585.507812 16459.882812 C 17558.007812 16487.304688 17513.515625 16487.304688 17486.015625 16459.882812 L 17386.601562 16360.507812 C 17359.21875 16333.007812 17359.21875 16288.515625 17386.601562 16261.09375 L 17486.015625 16161.71875 C 17513.515625 16134.21875 17558.007812 16134.21875 17585.507812 16161.71875 L 17684.882812 16261.09375 C 17712.304688 16288.515625 17712.304688 16333.007812 17684.882812 16360.507812 Z M 17585.507812 16459.882812 " transform="matrix(0.1, 0, 0, -0.1, 0, 2100)"/>
<path fill="none" stroke-width="143.61" stroke-linecap="round" stroke-linejoin="round" stroke="rgb(0%, 0%, 0%)" stroke-opacity="1" stroke-miterlimit="10" d="M 18822.617188 16218.398438 C 18795.195312 16245.898438 18750.585938 16245.898438 18723.203125 16218.398438 L 18623.789062 16119.101562 C 18596.40625 16091.601562 18596.40625 16047.109375 18623.789062 16019.609375 L 18723.203125 15920.195312 C 18750.585938 15892.8125 18795.195312 15892.8125 18822.617188 15920.195312 L 18921.992188 16019.609375 C 18949.414062 16047.109375 18949.414062 16091.601562 18921.992188 16119.101562 Z M 18822.617188 16218.398438 " transform="matrix(0.1, 0, 0, -0.1, 0, 2100)"/>
<path fill="none" stroke-width="143.61" stroke-linecap="round" stroke-linejoin="round" stroke="rgb(0%, 0%, 0%)" stroke-opacity="1" stroke-miterlimit="10" d="M 18351.40625 16689.6875 C 18323.984375 16717.109375 18279.414062 16717.109375 18251.992188 16689.6875 L 18152.617188 16590.195312 C 18125.195312 16562.8125 18125.195312 16518.28125 18152.617188 16490.78125 L 18251.992188 16391.40625 C 18279.414062 16363.984375 18323.984375 16363.984375 18351.40625 16391.40625 L 18450.78125 16490.78125 C 18478.28125 16518.28125 18478.28125 16562.8125 18450.78125 16590.195312 Z M 18351.40625 16689.6875 " transform="matrix(0.1, 0, 0, -0.1, 0, 2100)"/>
<path fill="none" stroke-width="143.61" stroke-linecap="round" stroke-linejoin="round" stroke="rgb(0%, 0%, 0%)" stroke-opacity="1" stroke-miterlimit="10" d="M 18637.382812 18772.8125 L 24118.007812 13292.1875 " transform="matrix(0.1, 0, 0, -0.1, 0, 2100)"/>
<path fill="none" stroke-width="143.61" stroke-linecap="round" stroke-linejoin="round" stroke="rgb(0%, 0%, 0%)" stroke-opacity="1" stroke-miterlimit="10" d="M 20156.601562 24370.3125 L 27676.289062 16850.585938 " transform="matrix(0.1, 0, 0, -0.1, 0, 2100)"/>
<path fill="none" stroke-width="143.61" stroke-linecap="round" stroke-linejoin="round" stroke="rgb(0%, 0%, 0%)" stroke-opacity="1" stroke-miterlimit="10" d="M 18918.007812 21010.585938 L 25377.1875 14551.484375 " transform="matrix(0.1, 0, 0, -0.1, 0, 2100)"/>
<path fill="none" stroke-width="143.61" stroke-linecap="round" stroke-linejoin="round" stroke="rgb(0%, 0%, 0%)" stroke-opacity="1" stroke-miterlimit="10" d="M 20437.1875 26608.085938 L 28935.507812 18109.804688 " transform="matrix(0.1, 0, 0, -0.1, 0, 2100)"/>
<path fill="none" stroke-width="143.61" stroke-linecap="round" stroke-linejoin="round" stroke="rgb(0%, 0%, 0%)" stroke-opacity="1" stroke-miterlimit="10" d="M 18637.382812 17961.015625 L 23712.109375 12886.40625 " transform="matrix(0.1, 0, 0, -0.1, 0, 2100)"/>
<path fill="none" stroke-width="143.61" stroke-linecap="round" stroke-linejoin="round" stroke="rgb(0%, 0%, 0%)" stroke-opacity="1" stroke-miterlimit="10" d="M 20156.601562 23558.515625 L 27270.390625 16444.6875 " transform="matrix(0.1, 0, 0, -0.1, 0, 2100)"/>
<path fill="none" stroke-width="143.61" stroke-linecap="round" stroke-linejoin="round" stroke="rgb(0%, 0%, 0%)" stroke-opacity="1" stroke-miterlimit="10" d="M 19697.1875 33034.804688 L 31778.789062 20953.085938 " transform="matrix(0.1, 0, 0, -0.1, 0, 2100)"/>
<path fill="none" stroke-width="143.61" stroke-linecap="round" stroke-linejoin="round" stroke="rgb(0%, 0%, 0%)" stroke-opacity="1" stroke-miterlimit="10" d="M 18579.882812 17156.09375 L 23280.78125 12455.117188 " transform="matrix(0.1, 0, 0, -0.1, 0, 2100)"/>
<path fill="none" stroke-width="143.61" stroke-linecap="round" stroke-linejoin="round" stroke="rgb(0%, 0%, 0%)" stroke-opacity="1" stroke-miterlimit="10" d="M 20098.984375 22753.515625 L 26839.101562 16013.398438 " transform="matrix(0.1, 0, 0, -0.1, 0, 2100)"/>
<path fill="none" stroke-width="143.61" stroke-linecap="round" stroke-linejoin="round" stroke="rgb(0%, 0%, 0%)" stroke-opacity="1" stroke-miterlimit="10" d="M 17635.195312 16211.40625 L 22336.09375 11510.390625 " transform="matrix(0.1, 0, 0, -0.1, 0, 2100)"/>
<path fill="none" stroke-width="143.61" stroke-linecap="round" stroke-linejoin="round" stroke="rgb(0%, 0%, 0%)" stroke-opacity="1" stroke-miterlimit="10" d="M 19154.414062 21808.789062 L 25894.414062 15068.710938 " transform="matrix(0.1, 0, 0, -0.1, 0, 2100)"/>
<path fill="none" stroke-width="143.61" stroke-linecap="round" stroke-linejoin="round" stroke="rgb(0%, 0%, 0%)" stroke-opacity="1" stroke-miterlimit="10" d="M 18872.304688 15969.882812 L 22833.984375 12008.28125 " transform="matrix(0.1, 0, 0, -0.1, 0, 2100)"/>
<path fill="none" stroke-width="143.61" stroke-linecap="round" stroke-linejoin="round" stroke="rgb(0%, 0%, 0%)" stroke-opacity="1" stroke-miterlimit="10" d="M 20391.484375 21567.382812 L 26392.304688 15566.601562 " transform="matrix(0.1, 0, 0, -0.1, 0, 2100)"/>
<path fill="none" stroke-width="143.61" stroke-linecap="round" stroke-linejoin="round" stroke="rgb(0%, 0%, 0%)" stroke-opacity="1" stroke-miterlimit="10" d="M 18202.304688 16639.882812 L 17796.484375 17045.703125 " transform="matrix(0.1, 0, 0, -0.1, 0, 2100)"/>
<path fill="none" stroke-width="143.61" stroke-linecap="round" stroke-linejoin="round" stroke="rgb(0%, 0%, 0%)" stroke-opacity="1" stroke-miterlimit="10" d="M 17796.484375 17045.703125 L 15407.382812 17045.703125 " transform="matrix(0.1, 0, 0, -0.1, 0, 2100)"/>
<path fill="none" stroke-width="119.78" stroke-linecap="round" stroke-linejoin="round" stroke="rgb(0%, 0%, 0%)" stroke-opacity="1" stroke-miterlimit="10" d="M 19741.015625 12972.617188 C 19763.90625 12949.6875 19763.90625 12912.617188 19741.015625 12889.6875 L 19658.085938 12806.796875 C 19635.3125 12783.90625 19598.085938 12783.90625 19575.195312 12806.796875 L 19492.304688 12889.6875 C 19469.414062 12912.617188 19469.414062 12949.6875 19492.304688 12972.617188 L 19575.195312 13055.507812 C 19598.085938 13078.398438 19635.3125 13078.398438 19658.085938 13055.507812 Z M 19741.015625 12972.617188 " transform="matrix(0.1, 0, 0, -0.1, 0, 2100)"/>
<path fill="none" stroke-width="119.78" stroke-linecap="round" stroke-linejoin="round" stroke="rgb(0%, 0%, 0%)" stroke-opacity="1" stroke-miterlimit="10" d="M 22011.71875 10536.210938 L 19699.609375 12848.28125 " transform="matrix(0.1, 0, 0, -0.1, 0, 2100)"/>
</svg>
