<!--?xml version="1.0" encoding="UTF-8"?-->
<svg viewBox="0 0 256 256" width="256" height="256" xmlns="http://www.w3.org/2000/svg">
  <!-- Nền trong suốt -->
  <rect width="256" height="256" fill="none"></rect>
  <!-- Stroke ăn theo CSS (currentColor) -->
  <g fill="none" stroke="currentColor" stroke-width="1.6" stroke-linecap="round" stroke-linejoin="round" opacity="0.95">
    <!-- Cụm 1: chéo xuống phải (góc TL -> giữa) -->
    <path d="M-8 200 L72 120 M8 200 L88 120 M24 200 L104 120 M40 200 L120 120"></path>
    <path d="M136 120 L216 40 M152 120 L232 40 M168 120 L248 40"></path>
    <circle cx="72" cy="120" r="2.2"></circle><circle cx="88" cy="120" r="2.2"></circle><circle cx="104" cy="120" r="2.2"></circle><circle cx="120" cy="120" r="2.2"></circle>
    <circle cx="136" cy="120" r="2.2"></circle><circle cx="152" cy="120" r="2.2"></circle><circle cx="168" cy="120" r="2.2"></circle>
    <!-- Nhánh nhỏ -->
    <path d="M88 120 l12 -12 m-24 12 l10 -10 m-24 12 l8 -8"></path>
    <path d="M152 120 l10 -10 m-22 10 l8 -8"></path>

    <!-- Cụm 2: chéo xuống phải (góc trên -> phải) -->
    <path d="M120 16 L200 -64 M136 16 L216 -64 M152 16 L232 -64"></path>
    <circle cx="120" cy="16" r="2.2"></circle><circle cx="136" cy="16" r="2.2"></circle><circle cx="152" cy="16" r="2.2"></circle>

    <!-- Cụm 3: mép dưới ăn khớp khi lặp (ra khỏi cạnh, quay lại cạnh đối diện) -->
    <path d="M-16 272 L64 192 M0 272 L80 192 M16 272 L96 192 M32 272 L112 192"></path>
    <path d="M128 192 L208 112 M144 192 L224 112 M160 192 L240 112"></path>

    <!-- Một vài pad rời để phá pattern -->
    <circle cx="28" cy="44" r="2"></circle>
    <circle cx="236" cy="228" r="2"></circle>
    <circle cx="212" cy="84" r="2"></circle>
    <path d="M220 86 l10 -10"></path>
    <path d="M30 46 l12 -12"></path>
  </g>
</svg>
